<svg width="18" height="18" viewBox="0 0 18 18" fill="none" xmlns="http://www.w3.org/2000/svg">
<path fill-rule="evenodd" clip-rule="evenodd" d="M17.7071 1.70711C18.0976 1.31658 18.0976 0.683418 17.7071 0.292893C17.3166 -0.0976311 16.6834 -0.0976311 16.2929 0.292893L13.2762 3.30959C12.0769 2.53518 10.6509 2 9 2C3.02944 2 0 9 0 9C0 9 1.05549 11.4389 3.14831 13.4375L0.292893 16.2929C-0.0976311 16.6834 -0.0976311 17.3166 0.292893 17.7071C0.683418 18.0976 1.31658 18.0976 1.70711 17.7071L17.7071 1.70711ZM4.56257 12.0232L6.29237 10.2934C6.10495 9.90178 6 9.46315 6 9C6 7.34315 7.34315 6 9 6C9.46315 6 9.90178 6.10495 10.2934 6.29237L11.8201 4.7657C10.9739 4.29096 10.0334 4 9 4C6.85447 4 5.1091 5.25424 3.77798 6.80342C3.12863 7.55913 2.63342 8.32405 2.3005 8.9031C2.28154 8.9361 2.26314 8.96841 2.24531 9C2.26314 9.03159 2.28154 9.0639 2.3005 9.0969C2.63342 9.67595 3.12863 10.4409 3.77798 11.1966C4.02524 11.4844 4.2868 11.7619 4.56257 12.0232Z" fill="#425EFF"/>
<path d="M9 14C8.75795 14 8.52098 13.984 8.28914 13.9535L6.62816 15.6145C7.35894 15.858 8.14964 16 9 16C14.9706 16 18 9 18 9C18 9 17.3941 7.60006 16.1903 6.0523L14.7634 7.4792C15.1533 8.00035 15.4662 8.49735 15.6995 8.9031C15.7185 8.93609 15.7369 8.96841 15.7547 9C15.7369 9.0316 15.7185 9.06391 15.6995 9.0969C15.3666 9.67595 14.8714 10.4409 14.222 11.1966C12.8909 12.7458 11.1455 14 9 14Z" fill="#425EFF"/>
</svg>
