<svg width="18" height="14" viewBox="0 0 18 14" fill="none" xmlns="http://www.w3.org/2000/svg">
<path fill-rule="evenodd" clip-rule="evenodd" d="M12 7C12 8.65685 10.6569 10 9 10C7.34315 10 6 8.65685 6 7C6 5.34315 7.34315 4 9 4C10.6569 4 12 5.34315 12 7ZM10 7C10 7.55229 9.55229 8 9 8C8.44771 8 8 7.55229 8 7C8 6.44771 8.44771 6 9 6C9.55229 6 10 6.44771 10 7Z" fill="#425EFF"/>
<path fill-rule="evenodd" clip-rule="evenodd" d="M9 14C3.02944 14 0 7 0 7C0 7 3.02944 0 9 0C14.9706 0 18 7 18 7C18 7 14.9706 14 9 14ZM2.3005 7.0969C2.28154 7.0639 2.26314 7.03159 2.24531 7C2.26314 6.96841 2.28154 6.9361 2.3005 6.9031C2.63342 6.32405 3.12863 5.55913 3.77798 4.80342C5.1091 3.25424 6.85447 2 9 2C11.1455 2 12.8909 3.25424 14.222 4.80342C14.8714 5.55913 15.3666 6.32405 15.6995 6.9031C15.7185 6.93609 15.7369 6.96841 15.7547 7C15.7369 7.0316 15.7185 7.06391 15.6995 7.0969C15.3666 7.67595 14.8714 8.44087 14.222 9.19658C12.8909 10.7458 11.1455 12 9 12C6.85447 12 5.1091 10.7458 3.77798 9.19658C3.12863 8.44087 2.63342 7.67595 2.3005 7.0969Z" fill="#425EFF"/>
</svg>
