<svg width="20" height="20" viewBox="0 0 20 20" fill="none" xmlns="http://www.w3.org/2000/svg">
  <path
    d="M11.4995 6.53879C11.4998 6.5259 11.5 6.51297 11.5 6.5C11.5 5.67157 10.8284 5 10 5C9.17157 5 8.5 5.67157 8.5 6.5C8.5 6.51297 8.50016 6.5259 8.50049 6.53879C8.50016 6.55266 8.5 6.56657 8.5 6.58054C8.5 7.46644 9.16258 8.16107 10 8.16107C10.8374 8.16107 11.5 7.46644 11.5 6.58054C11.5 6.56657 11.4998 6.55266 11.4995 6.53879Z"
    fill="#C97016" />
  <path
    d="M10.0039 15L10.0092 15C10.8282 15 11.3436 14.4463 11.3436 13.5201C11.3436 13.4396 11.3436 13.3188 11.3344 13.2181L11.1963 10.3591C11.1687 9.50336 10.7638 9 10 9C9.2362 9 8.83129 9.50336 8.81288 10.3591L8.66564 13.2181C8.66564 13.2713 8.66308 13.33 8.66066 13.3855C8.65849 13.4351 8.65644 13.4821 8.65644 13.5201C8.65644 14.4328 9.16582 14.9838 9.97323 14.9996C9.98212 14.9999 9.99105 15 10 15L10.0039 15Z"
    fill="#C97016" />
  <path fill-rule="evenodd" clip-rule="evenodd"
    d="M10 19C14.9706 19 19 14.9706 19 10C19 5.02944 14.9706 1 10 1C5.02944 1 1 5.02944 1 10C1 14.9706 5.02944 19 10 19ZM10 17C13.866 17 17 13.866 17 10C17 6.13401 13.866 3 10 3C6.13401 3 3 6.13401 3 10C3 13.866 6.13401 17 10 17Z"
    fill="#C97016" />
</svg>