<svg width="30" height="36" viewBox="0 0 30 36" fill="none" xmlns="http://www.w3.org/2000/svg">
<path fill-rule="evenodd" clip-rule="evenodd" d="M30 2C30 0.89543 29.1046 0 28 0H12C10.8954 0 10 0.89543 10 2C10 3.10457 10.8954 4 12 4H26V32H12C10.8954 32 10 32.8954 10 34C10 35.1046 10.8954 36 12 36H28C29.1046 36 30 35.1046 30 34V2Z" fill="#65625B"/>
<path fill-rule="evenodd" clip-rule="evenodd" d="M10.5858 10.5858C11.3668 9.80474 12.6332 9.80474 13.4142 10.5858L19.4142 16.5858C20.1953 17.3668 20.1953 18.6332 19.4142 19.4142L13.4142 25.4142C12.6332 26.1953 11.3668 26.1953 10.5858 25.4142C9.80474 24.6332 9.80474 23.3668 10.5858 22.5858L13.1716 20H2C0.895431 20 0 19.1046 0 18C0 16.8954 0.895431 16 2 16H13.1716L10.5858 13.4142C9.80474 12.6332 9.80474 11.3668 10.5858 10.5858Z" fill="#65625B"/>
</svg>
