<svg width="40" height="40" viewBox="0 0 40 40" fill="none" xmlns="http://www.w3.org/2000/svg">
<path d="M20 24C18.3431 24 17 25.3431 17 27C17 28.6569 18.3431 30 20 30C21.6569 30 23 28.6569 23 27C23 25.3431 21.6569 24 20 24Z" fill="#65625B"/>
<path fill-rule="evenodd" clip-rule="evenodd" d="M10.0001 16H8C6.89543 16 6 16.8954 6 18V35.9998C6 37.1044 6.89543 37.9998 8 37.9998H32C33.1046 37.9998 34 37.1044 34 35.9998V18C34 16.8954 33.1046 16 32 16H30.0001L30.0001 15.7917C30.001 13.1811 30.0021 9.82879 28.8354 7.13428C28.2038 5.67545 27.2096 4.34214 25.6746 3.39586C24.1555 2.45935 22.266 2 20.0001 2C17.7342 2 15.8447 2.45935 14.3256 3.39586C12.7906 4.34214 11.7964 5.67545 11.1647 7.13428C9.9981 9.82879 9.9992 13.1811 10 15.7917L10.0001 16ZM14.0001 16C14.0001 13.1159 14.0333 10.5761 14.8354 8.72358C15.2038 7.87277 15.7096 7.24161 16.4246 6.80084C17.1555 6.35029 18.266 6 20.0001 6C21.7342 6 22.8447 6.35029 23.5756 6.80084C24.2906 7.24161 24.7964 7.87277 25.1647 8.72358C25.9668 10.5761 26.0001 13.1159 26.0001 16H14.0001ZM10 33.9998V20H30V33.9998H10Z" fill="#65625B"/>
</svg>
