<svg width="105" height="20" viewBox="0 0 105 20" fill="none" xmlns="http://www.w3.org/2000/svg">
<path d="M62.3424 16.113V8.41449H60.6914L61.4889 6.28116H62.3424V5.15324C62.3424 4.20097 62.6269 3.47749 63.1958 2.9828C63.7646 2.47575 64.5809 2.22222 65.6444 2.22222H67.7778V4.35556H65.8671C65.5455 4.35556 65.2982 4.44213 65.125 4.61527C64.9643 4.78841 64.8839 5.04812 64.8839 5.3944V6.28116H67.5737V8.41449H64.8839V16.113H62.3424Z" fill="white"/>
<path d="M68.753 2.22223V16.1131H71.276V2.22223H68.753Z" fill="white"/>
<path fill-rule="evenodd" clip-rule="evenodd" d="M74.3382 15.742C75.1173 16.1873 76.0325 16.4099 77.0837 16.4099C78.0854 16.4099 78.9697 16.1996 79.7364 15.7791C80.5156 15.3463 81.1215 14.7279 81.5544 13.9241C81.9996 13.1202 82.2222 12.1865 82.2222 11.1229C82.2222 10.1335 82.012 9.24928 81.5915 8.47015C81.171 7.69102 80.5712 7.07884 79.7921 6.63363C79.0253 6.18841 78.1225 5.9658 77.0837 5.9658C76.0819 5.9658 75.1915 6.17604 74.4124 6.59652C73.6456 7.00464 73.0396 7.59826 72.5944 8.37739C72.1615 9.15652 71.9451 10.0717 71.9451 11.1229C71.9451 12.137 72.1492 13.046 72.5573 13.8499C72.9654 14.6537 73.559 15.2844 74.3382 15.742ZM78.4564 13.887C78.073 14.1467 77.6155 14.2765 77.0837 14.2765C76.5642 14.2765 76.1067 14.1529 75.7109 13.9055C75.3275 13.6458 75.0245 13.281 74.8019 12.811C74.5917 12.3287 74.4866 11.766 74.4866 11.1229C74.4866 10.5045 74.5917 9.97276 74.8019 9.52754C75.0122 9.06995 75.3152 8.71749 75.7109 8.47015C76.1067 8.21044 76.5642 8.08058 77.0837 8.08058C77.8628 8.08058 78.4873 8.35884 78.9573 8.91537C79.4396 9.45952 79.6808 10.1954 79.6808 11.1229C79.6808 11.7413 79.5757 12.2916 79.3654 12.7739C79.1552 13.2439 78.8522 13.6149 78.4564 13.887Z" fill="white"/>
<path d="M97.8765 15.5194C98.6433 16.113 99.7378 16.4099 101.16 16.4099C101.964 16.4099 102.65 16.2924 103.219 16.0574C103.8 15.81 104.239 15.4638 104.536 15.0186C104.845 14.561 105 14.023 105 13.4046C105 12.8358 104.876 12.3658 104.629 11.9948C104.394 11.6238 104.054 11.3208 103.609 11.0858C103.163 10.8508 102.557 10.6035 101.791 10.3438L100.659 9.95421C100.634 9.94184 100.61 9.93566 100.585 9.93566C100.56 9.93566 100.535 9.92947 100.511 9.9171C100.103 9.78107 99.7934 9.64503 99.5832 9.50899C99.3729 9.36058 99.2678 9.15652 99.2678 8.89681C99.2678 8.61237 99.3853 8.38976 99.6203 8.22899C99.8553 8.06821 100.183 7.98783 100.603 7.98783C101.135 7.98783 101.562 8.1115 101.883 8.35884C102.205 8.59382 102.391 8.95247 102.44 9.43479H104.777C104.654 8.32174 104.221 7.46841 103.479 6.87479C102.749 6.26879 101.791 5.9658 100.603 5.9658C99.7996 5.9658 99.1071 6.08947 98.5258 6.33681C97.9569 6.57179 97.5241 6.91807 97.2272 7.37565C96.9304 7.82087 96.782 8.34029 96.782 8.93392C96.782 9.49044 96.9057 9.95421 97.153 10.3252C97.4128 10.6962 97.7467 10.9992 98.1548 11.2342C98.5753 11.4568 99.1132 11.6732 99.7687 11.8835C99.7811 11.8958 99.7996 11.902 99.8243 11.902C99.8491 11.902 99.8738 11.9082 99.8986 11.9206L101.141 12.3287C101.179 12.3411 101.209 12.3534 101.234 12.3658L101.346 12.4029C101.618 12.4895 101.828 12.5699 101.976 12.6441C102.125 12.7059 102.242 12.7925 102.329 12.9038C102.428 13.0151 102.477 13.1697 102.477 13.3675C102.477 13.6891 102.347 13.9426 102.088 14.1281C101.828 14.3013 101.457 14.3878 100.974 14.3878C100.418 14.3878 99.9666 14.2703 99.6203 14.0354C99.274 13.788 99.0823 13.4294 99.0452 12.9594H96.6336C96.6955 14.0725 97.1098 14.9258 97.8765 15.5194Z" fill="white"/>
<path d="M54.1487 16.6182L50.0381 6.28116H52.7465L55.3807 13.3119L57.9778 6.28116H60.5935L55.5 20H52.8556L54.1487 16.6182Z" fill="white"/>
<path fill-rule="evenodd" clip-rule="evenodd" d="M31.1111 2.22222V16.113H33.6711V10.7556H36.8267C37.6676 10.7556 38.4097 10.5762 39.0528 10.2176C39.7082 9.85894 40.2215 9.35807 40.5925 8.71498C40.9635 8.05952 41.149 7.30512 41.149 6.45179C41.149 5.63556 40.9697 4.91208 40.611 4.28135C40.2524 3.63826 39.7453 3.13739 39.0899 2.77874C38.4468 2.40773 37.6924 2.22222 36.8267 2.22222H31.1111ZM37.68 8.17701C37.3832 8.36251 37.0307 8.45527 36.6226 8.45527H33.6711V4.50396H36.6226C37.0184 4.50396 37.3646 4.59053 37.6615 4.76367C37.9583 4.93681 38.1809 5.17179 38.3293 5.4686C38.4777 5.76541 38.5519 6.09314 38.5519 6.45179C38.5519 6.81044 38.4777 7.14435 38.3293 7.45353C38.1932 7.75034 37.9768 7.9915 37.68 8.17701Z" fill="white"/>
<path fill-rule="evenodd" clip-rule="evenodd" d="M42.1311 15.573C42.8111 16.0799 43.7321 16.3333 44.8943 16.3333C45.7103 16.3333 46.3841 16.1973 46.9157 15.9253C47.2497 15.7584 47.537 15.5448 47.7778 15.2846L48.1768 16.1108H50.3094V9.49022C50.3094 8.79787 50.1487 8.18588 49.8273 7.65426C49.5058 7.12264 49.0298 6.70846 48.3993 6.41174C47.7811 6.11502 47.0146 5.96666 46.0997 5.96666C45.2343 5.96666 44.4554 6.1212 43.7631 6.43029C43.0707 6.72701 42.5082 7.15354 42.0755 7.70989C41.6551 8.26624 41.4078 8.89678 41.3337 9.60149H43.8929C43.9547 9.11932 44.1772 8.72987 44.5605 8.43315C44.9561 8.13643 45.4568 7.98807 46.0626 7.98807C46.4459 7.98807 46.7673 8.0437 47.027 8.15497C47.299 8.26624 47.503 8.42079 47.639 8.6186C47.775 8.81641 47.843 9.05132 47.843 9.32331C47.843 9.53349 47.7626 9.70039 47.6019 9.82403C47.4535 9.94766 47.2495 10.0466 46.9899 10.1207C46.7303 10.1826 46.3717 10.2382 45.9143 10.2877C45.8277 10.3 45.735 10.3124 45.6361 10.3247L45.3765 10.3618C44.5852 10.4607 43.8867 10.6029 43.2809 10.7884C42.6751 10.9738 42.162 11.2767 41.7416 11.6971C41.3337 12.1174 41.1235 12.6923 41.1111 13.4218C41.1111 14.3366 41.4511 15.0537 42.1311 15.573ZM47.1568 13.9225C46.6993 14.2563 46.1306 14.4232 45.4506 14.4232C44.8448 14.4232 44.3936 14.3243 44.0969 14.1265C43.8001 13.9163 43.6518 13.6196 43.6518 13.2363C43.6518 12.9396 43.7321 12.7109 43.8929 12.5501C44.066 12.3894 44.2885 12.272 44.5605 12.1978C44.8325 12.1112 45.2034 12.0371 45.6732 11.9752H45.7845C46.3532 11.8887 46.8044 11.7898 47.1382 11.6785C47.4721 11.5673 47.707 11.388 47.843 11.1407V12.5687C47.843 13.1374 47.6142 13.5887 47.1568 13.9225Z" fill="white"/>
<path d="M84.8543 16.113L81.9418 6.28116H84.5204L86.3383 12.9965L88.1934 6.28116H90.234L92.0891 12.9223L93.8885 6.28116H96.467L93.5546 16.113H90.9946L89.2137 9.78725L87.4514 16.113H84.8543Z" fill="white"/>
<path d="M1.66668 4.44444C1.12299 4.44444 0.613477 4.70963 0.301565 5.15495C-0.0103475 5.60027 -0.0854468 6.16973 0.100355 6.68068L4.5448 18.9029C4.78431 19.5616 5.41028 20 6.11112 20H18.3333C18.877 20 19.3865 19.7348 19.6985 19.2895C20.0104 18.8442 20.0855 18.2747 19.8997 17.7638L19.0967 15.5556H8.33387C7.63302 15.5556 7.00705 15.1171 6.76755 14.4585L3.12609 4.44444H1.66668Z" fill="#60C8E9"/>
<path d="M3.8889 0C3.34521 0 2.8357 0.265188 2.52379 0.710505C2.21187 1.15582 2.13678 1.72528 2.32258 2.23624L3.12609 4.44444H13.8894C14.5903 4.44444 15.2162 4.88289 15.4557 5.54154L19.0967 15.5556H20.5556C21.0993 15.5556 21.6088 15.2904 21.9207 14.8451C22.2326 14.3997 22.3077 13.8303 22.1219 13.3193L17.6774 1.09709C17.4379 0.438446 16.812 0 16.1111 0H3.8889Z" fill="#425EFF"/>
<path d="M19.0967 15.5556H8.33387C7.63302 15.5556 7.00705 15.1171 6.76755 14.4585L3.12609 4.44444H13.8894C14.5903 4.44444 15.2162 4.88289 15.4557 5.54154L19.0967 15.5556Z" fill="#2E3F9D"/>
</svg>
